<?xml version="1.0" encoding="iso-8859-1"?>
<!-- Generator: Adobe Illustrator 16.0.0, SVG Export Plug-In . SVG Version: 6.00 Build 0)  -->
<!DOCTYPE svg PUBLIC "-//W3C//DTD SVG 1.1//EN" "http://www.w3.org/Graphics/SVG/1.1/DTD/svg11.dtd">
<svg version="1.1" id="Capa_1" xmlns="http://www.w3.org/2000/svg" xmlns:xlink="http://www.w3.org/1999/xlink" x="0px" y="0px"
	 width="473.738px" height="473.738px" viewBox="0 0 473.738 473.738" style="enable-background:new 0 0 473.738 473.738;"
	 xml:space="preserve">
<g>
	<path d="M469.371,172.497L338.56,60.412c-3.565-3.008-5.859-3.008-8.135-3.008c-2.274,0-192.19,0.005-192.19,0.005
		c-2.967,0-5.838,1.056-8.099,2.979L4.4,167.357c-2.792,2.375-4.4,5.854-4.4,9.521v19.948c0,6.903,5.596,12.5,12.5,12.5h4.689
		v194.508c0,6.903,5.596,12.5,12.5,12.5h273.902c6.903,0,12.5-5.597,12.5-12.5v-78.48h43.604v78.48c0,6.903,5.597,12.5,12.5,12.5
		h71.854c6.903,0,12.5-5.597,12.5-12.5V209.326h4.688c6.903,0,12.5-5.597,12.5-12.5v-14.837
		C473.738,178.34,472.144,174.872,469.371,172.497z M142.833,82.409l154.613-0.004l-94.424,83.586H44.588L142.833,82.409z
		 M40.74,190.991h154.52v200.343H42.189V196.826C42.189,194.718,41.662,192.734,40.74,190.991z M444.051,184.326
		c-6.902,0-12.5,5.597-12.5,12.5v194.508h-46.854v-78.48c0-6.902-5.597-12.5-12.5-12.5h-68.604c-6.903,0-12.5,5.598-12.5,12.5v78.48
		H220.26V184.119l110.3-97.64l114.194,97.847H444.051z"/>
</g>
<g>
</g>
<g>
</g>
<g>
</g>
<g>
</g>
<g>
</g>
<g>
</g>
<g>
</g>
<g>
</g>
<g>
</g>
<g>
</g>
<g>
</g>
<g>
</g>
<g>
</g>
<g>
</g>
<g>
</g>
</svg>
